<svg width="24" height="24" viewBox="0 0 24 24" fill="none" xmlns="http://www.w3.org/2000/svg">
<circle cx="12" cy="12" r="12" fill="#D9D9D9" fill-opacity="0.1"/>
<path d="M7.87251 15V9.18182H11.3612V9.80682H8.57706V11.7727H11.0998V12.3977H8.57706V15H7.87251ZM12.5678 15V9.18182H13.2383V11.3295H13.2951C13.3443 11.2538 13.4125 11.1572 13.4996 11.0398C13.5887 10.9205 13.7156 10.8144 13.8803 10.7216C14.047 10.6269 14.2724 10.5795 14.5565 10.5795C14.9239 10.5795 15.2478 10.6714 15.5281 10.8551C15.8084 11.0388 16.0271 11.2992 16.1843 11.6364C16.3415 11.9735 16.4201 12.3712 16.4201 12.8295C16.4201 13.2917 16.3415 13.6922 16.1843 14.0312C16.0271 14.3684 15.8093 14.6297 15.5309 14.8153C15.2525 14.9991 14.9315 15.0909 14.5678 15.0909C14.2875 15.0909 14.0631 15.0445 13.8945 14.9517C13.726 14.857 13.5962 14.75 13.5053 14.6307C13.4144 14.5095 13.3443 14.4091 13.2951 14.3295H13.2156V15H12.5678ZM13.2269 12.8182C13.2269 13.1477 13.2752 13.4384 13.3718 13.6903C13.4684 13.9403 13.6095 14.1364 13.7951 14.2784C13.9807 14.4186 14.208 14.4886 14.4769 14.4886C14.7572 14.4886 14.9911 14.4148 15.1786 14.267C15.368 14.1174 15.5101 13.9167 15.6048 13.6648C15.7013 13.411 15.7496 13.1288 15.7496 12.8182C15.7496 12.5114 15.7023 12.2348 15.6076 11.9886C15.5148 11.7405 15.3737 11.5445 15.1843 11.4006C14.9968 11.2547 14.761 11.1818 14.4769 11.1818C14.2042 11.1818 13.975 11.2509 13.7894 11.3892C13.6038 11.5256 13.4637 11.7169 13.369 11.9631C13.2743 12.2074 13.2269 12.4924 13.2269 12.8182Z" fill="white"/>
</svg>
