<svg width="24" height="24" viewBox="0 0 24 24" fill="none" xmlns="http://www.w3.org/2000/svg">
<circle cx="12" cy="12" r="12" fill="#D9D9D9" fill-opacity="0.1"/>
<path d="M10.413 9.18182V15H9.70845V9.18182H10.413ZM13.4961 16.7273C13.1722 16.7273 12.8938 16.6856 12.6609 16.6023C12.4279 16.5208 12.2338 16.4129 12.0785 16.2784C11.9251 16.1458 11.8029 16.0038 11.712 15.8523L12.2461 15.4773C12.3067 15.5568 12.3834 15.6477 12.4762 15.75C12.569 15.8542 12.6959 15.9441 12.8569 16.0199C13.0198 16.0975 13.2328 16.1364 13.4961 16.1364C13.8484 16.1364 14.1391 16.0511 14.3683 15.8807C14.5974 15.7102 14.712 15.4432 14.712 15.0795V14.1932H14.6552C14.6059 14.2727 14.5359 14.3712 14.445 14.4886C14.3559 14.6042 14.2272 14.7074 14.0586 14.7983C13.8919 14.8873 13.6665 14.9318 13.3825 14.9318C13.0302 14.9318 12.7139 14.8485 12.4336 14.6818C12.1552 14.5152 11.9345 14.2727 11.7717 13.9545C11.6107 13.6364 11.5302 13.25 11.5302 12.7955C11.5302 12.3485 11.6088 11.9593 11.766 11.6278C11.9232 11.2945 12.1419 11.0369 12.4222 10.8551C12.7025 10.6714 13.0264 10.5795 13.3938 10.5795C13.6779 10.5795 13.9033 10.6269 14.07 10.7216C14.2385 10.8144 14.3673 10.9205 14.4563 11.0398C14.5472 11.1572 14.6173 11.2538 14.6665 11.3295H14.7347V10.6364H15.3825V15.125C15.3825 15.5 15.2972 15.8049 15.1268 16.0398C14.9582 16.2765 14.7309 16.4498 14.445 16.5597C14.1609 16.6714 13.8446 16.7273 13.4961 16.7273ZM13.4734 14.3295C13.7423 14.3295 13.9696 14.268 14.1552 14.1449C14.3408 14.0218 14.4819 13.8447 14.5785 13.6136C14.6751 13.3826 14.7234 13.1061 14.7234 12.7841C14.7234 12.4697 14.676 12.1922 14.5813 11.9517C14.4866 11.7112 14.3465 11.5227 14.1609 11.3864C13.9753 11.25 13.7461 11.1818 13.4734 11.1818C13.1893 11.1818 12.9525 11.2538 12.7631 11.3977C12.5756 11.5417 12.4345 11.7348 12.3398 11.9773C12.247 12.2197 12.2006 12.4886 12.2006 12.7841C12.2006 13.0871 12.248 13.3551 12.3427 13.5881C12.4393 13.8191 12.5813 14.0009 12.7688 14.1335C12.9582 14.2642 13.1931 14.3295 13.4734 14.3295Z" fill="white"/>
</svg>
